<svg width="41" height="40" viewBox="0 0 41 40" xmlns="http://www.w3.org/2000/svg"><title>edit</title><path d="M39.239 37.163H1.45c-.795 0-1.416.657-1.416 1.418C.035 39.343.69 40 1.45 40h37.822c.795 0 1.417-.657 1.417-1.419 0-.76-.657-1.418-1.451-1.418zM.035 24.603L0 31.348c0 .381.138.762.414 1.039.277.276.622.415 1.002.415l6.701-.035c.38 0 .726-.138 1.002-.415L32.262 9.17c.552-.554.552-1.454 0-2.042L25.63.415c-.553-.553-1.451-.553-2.038 0l-4.629 4.672L.45 23.599c-.242.276-.414.622-.414 1.003zM24.628 3.46l4.663 4.671-2.625 2.63-4.663-4.671 2.625-2.63zM2.9 25.225L19.965 8.13l4.663 4.672L7.565 29.862l-4.698.034.034-4.671z" fill="#64DD17" fill-rule="evenodd"/></svg>