<svg width="16" height="14" viewBox="0 0 16 14" xmlns="http://www.w3.org/2000/svg"><title>envelope</title><path d="M.014 13.296c0 .014 0 .028.014.055 0 .014.013.042.013.056 0 .013.014.027.014.055.014.014.014.027.028.055.014.014.014.028.028.041.013.014.027.028.027.042l.042.041.013.014s.014 0 .014.014a.33.33 0 0 0 .152.083c.014 0 .014 0 .028.013.055.014.11.028.166.028H15.46c.055 0 .11-.014.166-.028.014 0 .014 0 .028-.013.055-.028.11-.056.152-.083 0 0 .013 0 .013-.014l.014-.014.042-.041c.013-.014.027-.028.027-.042.014-.013.014-.027.028-.041.014-.014.014-.028.028-.055.013-.014.013-.028.013-.055 0-.014.014-.042.014-.056 0-.014.014-.027.014-.055V.566A.56.56 0 0 0 15.434 0H.566A.56.56 0 0 0 0 .566v12.675c.014.014.014.027.014.055zm1.768-.649L5.97 7.65l1.74 1.215a.538.538 0 0 0 .319.097c.11 0 .22-.028.317-.097l1.741-1.215 4.187 4.998H1.783zm13.14-.994L11.012 7l3.896-2.72v7.373h.014zM1.147 1.133h13.775v1.78l-6.88 4.791-6.895-4.79V1.131zm0 3.147L5.043 7l-3.896 4.653V4.28z" fill="#64DD17" fill-rule="evenodd"/></svg>