<svg width="16" height="16" viewBox="0 0 16 16" xmlns="http://www.w3.org/2000/svg"><title>Shape</title><path d="M0 8.203c0 3.624 2.292 6.698 5.471 7.783.4.075.546-.178.546-.395 0-.195-.007-.71-.01-1.395-2.226.495-2.695-1.1-2.695-1.1-.364-.948-.889-1.2-.889-1.2-.726-.509.055-.498.055-.498.803.057 1.225.845 1.225.845.715 1.253 1.873.891 2.329.681.073-.53.28-.891.508-1.096-1.777-.207-3.644-.91-3.644-4.054 0-.896.311-1.628.823-2.202-.082-.207-.356-1.041.079-2.17 0 0 .672-.221 2.2.84A7.487 7.487 0 0 1 8 3.967a7.5 7.5 0 0 1 2.003.275c1.527-1.061 2.198-.84 2.198-.84.436 1.129.162 1.963.08 2.17.513.574.822 1.306.822 2.202 0 3.15-1.87 3.844-3.652 4.048.287.253.542.753.542 1.518 0 1.097-.01 1.982-.01 2.25 0 .22.145.475.55.395C13.71 14.898 16 11.826 16 8.203 16 3.673 12.418 0 8 0S0 3.672 0 8.203z" fill="#64DD17" fill-rule="evenodd"/></svg>