<svg width="44" height="44" viewBox="0 0 44 44" xmlns="http://www.w3.org/2000/svg" xmlns:xlink="http://www.w3.org/1999/xlink"><title>instagram</title><defs><circle id="a" cx="22" cy="22" r="22"/><mask id="b" x="0" y="0" width="44" height="44" fill="#fff"><use xlink:href="#a"/></mask></defs><g fill="none" fill-rule="evenodd"><path d="M0 0h44v44H0z"/><use stroke="#64DD17" mask="url(#b)" stroke-width="4" xlink:href="#a"/><path d="M28.441 11.5H15.56a4.063 4.063 0 0 0-4.059 4.059V28.44a4.063 4.063 0 0 0 4.059 4.059H28.44a4.063 4.063 0 0 0 4.059-4.059V15.56a4.063 4.063 0 0 0-4.059-4.059zm1.165 2.421l.464-.002v3.56l-3.548.01-.013-3.56 3.097-.008zm-10.603 5.923A3.691 3.691 0 0 1 22 18.304c1.233 0 2.325.61 2.997 1.54.438.608.7 1.351.7 2.156A3.7 3.7 0 0 1 22 25.695 3.7 3.7 0 0 1 18.305 22c0-.805.261-1.548.698-2.156zm11.451 8.597c0 1.11-.902 2.013-2.013 2.013H15.56a2.015 2.015 0 0 1-2.013-2.013v-8.597h3.136A5.7 5.7 0 0 0 16.26 22 5.749 5.749 0 0 0 22 27.743 5.75 5.75 0 0 0 27.743 22c0-.762-.155-1.49-.424-2.156h3.135v8.597z" fill-opacity=".87" fill="#000"/></g></svg>