<svg width="100" height="100" viewBox="0 0 100 100" xmlns="http://www.w3.org/2000/svg"><title>link</title><path d="M25.365 39.81L4.127 61.136a14.012 14.012 0 0 0 0 19.862l14.876 14.876A13.98 13.98 0 0 0 28.977 100a13.98 13.98 0 0 0 9.974-4.127l21.152-21.324a13.98 13.98 0 0 0 4.127-9.975c0-.172 0-.258-.086-.43.172 0 .258.086.43.086a13.98 13.98 0 0 0 9.975-4.127L95.873 38.78a14.012 14.012 0 0 0 0-19.862L80.997 4.04A14.263 14.263 0 0 0 71.023 0c-3.783 0-7.222 1.462-9.888 4.127L39.811 25.365a13.98 13.98 0 0 0-4.127 9.975c0 .172 0 .258.086.43-.172 0-.258-.086-.43-.086a13.98 13.98 0 0 0-9.975 4.127zm19.863-9.028L66.552 9.458a6.442 6.442 0 0 1 4.557-1.891c1.72 0 3.354.688 4.557 1.891l14.876 14.876a6.383 6.383 0 0 1 0 9.028l-21.41 21.324c-2.408 2.408-6.621 2.408-9.029 0l-4.729-4.729 4.3-4.3c1.461-1.461 1.461-3.955 0-5.416-1.462-1.462-3.956-1.462-5.418 0l-4.299 4.299-4.73-4.73a6.442 6.442 0 0 1-1.89-4.556c0-1.72.687-3.268 1.89-4.472zM39.81 45.228l4.729 4.729-4.3 4.3c-1.461 1.461-1.461 3.955 0 5.416a3.711 3.711 0 0 0 2.666 1.118c.946 0 1.978-.344 2.666-1.118l4.299-4.299 4.73 4.73a6.442 6.442 0 0 1 1.89 4.556c0 1.72-.687 3.354-1.89 4.558L33.275 90.542c-2.408 2.407-6.62 2.407-9.028 0L9.458 75.58a6.383 6.383 0 0 1 0-9.028l21.324-21.324a6.442 6.442 0 0 1 4.558-1.892c1.633 0 3.267.688 4.47 1.892z" fill="#FFF" fill-rule="evenodd"/></svg>