<?xml version="1.0" encoding="UTF-8" standalone="no"?>
<svg width="41px" height="40px" viewBox="0 0 41 40" version="1.1" xmlns="http://www.w3.org/2000/svg" xmlns:xlink="http://www.w3.org/1999/xlink">
    <!-- Generator: Sketch 3.8.3 (29802) - http://www.bohemiancoding.com/sketch -->
    <title>edit</title>
    <desc>Created with Sketch.</desc>
    <defs></defs>
    <g id="Page-1" stroke="none" stroke-width="1" fill="none" fill-rule="evenodd">
        <g id="Desktop-HD" transform="translate(-372.000000, -1866.000000)" fill="#64DD17">
            <g id="my-projects" transform="translate(0.000000, 1331.000000)">
                <g id="proj-plates" transform="translate(224.000000, 182.000000)">
                    <g id="Group">
                        <g id="works" transform="translate(134.000000, 353.000000)">
                            <path d="M53.2389204,37.1626298 L15.4507347,37.1626298 C14.6562848,37.1626298 14.0345413,37.8200692 14.0345413,38.5813149 C14.0345413,39.3425606 14.6908261,40 15.4507347,40 L53.2734617,40 C54.0679117,40 54.6896552,39.3425606 54.6896552,38.5813149 C54.6896552,37.8200692 54.0333704,37.1626298 53.2389204,37.1626298 L53.2389204,37.1626298 Z M14.0345413,24.6020761 L14,31.349481 C14,31.7301038 14.1381652,32.1107266 14.4144956,32.3875433 C14.6908261,32.6643599 15.0362391,32.8027682 15.4161934,32.8027682 L22.1172063,32.7681661 C22.4971606,32.7681661 22.8425736,32.6297578 23.118904,32.3529412 L46.2615772,9.16955017 C46.814238,8.61591696 46.814238,7.71626298 46.2615772,7.12802768 L39.629647,0.415224913 C39.0769861,-0.138408304 38.1789122,-0.138408304 37.5917101,0.415224913 L32.9631755,5.08650519 L14.4490369,23.5986159 C14.2072478,23.8754325 14.0345413,24.2214533 14.0345413,24.6020761 L14.0345413,24.6020761 Z M38.6279492,3.46020761 L43.2910251,8.13148789 L40.6658861,10.7612457 L36.0028101,6.0899654 L38.6279492,3.46020761 Z M16.9014695,25.2249135 L33.9648733,8.13148789 L38.6279492,12.8027682 L21.5645454,29.8615917 L16.8669282,29.8961938 L16.9014695,25.2249135 L16.9014695,25.2249135 Z" id="edit"></path>
                        </g>
                    </g>
                </g>
            </g>
        </g>
    </g>
</svg>