<?xml version="1.0" encoding="UTF-8" standalone="no"?>
<svg width="16px" height="14px" viewBox="0 0 16 14" version="1.1" xmlns="http://www.w3.org/2000/svg" xmlns:xlink="http://www.w3.org/1999/xlink">
    <!-- Generator: Sketch 3.8.3 (29802) - http://www.bohemiancoding.com/sketch -->
    <title>envelope</title>
    <desc>Created with Sketch.</desc>
    <defs></defs>
    <g id="Page-1" stroke="none" stroke-width="1" fill="none" fill-rule="evenodd">
        <g id="Desktop-HD" transform="translate(-1026.000000, -3150.000000)" fill="#64DD17">
            <g id="footer" transform="translate(0.000000, 3106.000000)">
                <g id="mailme" transform="translate(1026.000000, 40.000000)">
                    <path d="M0.0138169257,17.2960547 C0.0138169257,17.3098616 0.0138169257,17.3236685 0.0276338515,17.3512823 C0.0276338515,17.3650892 0.0414507772,17.392703 0.0414507772,17.40651 C0.0414507772,17.4203169 0.0552677029,17.4341238 0.0552677029,17.4617376 C0.0690846287,17.4755445 0.0690846287,17.4893514 0.0829015544,17.5169652 C0.0967184801,17.5307722 0.0967184801,17.5445791 0.110535406,17.558386 C0.124352332,17.5721929 0.138169257,17.5859998 0.138169257,17.5998067 C0.151986183,17.6136136 0.165803109,17.6274205 0.179620035,17.6412274 L0.19343696,17.6550343 C0.19343696,17.6550343 0.207253886,17.6550343 0.207253886,17.6688413 C0.248704663,17.710262 0.303972366,17.7378758 0.359240069,17.7516827 C0.373056995,17.7516827 0.373056995,17.7516827 0.386873921,17.7654896 C0.442141623,17.7792965 0.497409326,17.7931034 0.552677029,17.7931034 L0.552677029,17.7931034 L15.4611399,17.7931034 L15.4611399,17.7931034 C15.5164076,17.7931034 15.5716753,17.7792965 15.626943,17.7654896 C15.6407599,17.7654896 15.6407599,17.7654896 15.6545769,17.7516827 C15.7098446,17.7240689 15.7651123,17.6964551 15.806563,17.6688413 C15.806563,17.6688413 15.82038,17.6688413 15.82038,17.6550343 L15.8341969,17.6412274 C15.8480138,17.6274205 15.8618307,17.6136136 15.8756477,17.5998067 C15.8894646,17.5859998 15.9032815,17.5721929 15.9032815,17.558386 C15.9170984,17.5445791 15.9170984,17.5307722 15.9309154,17.5169652 C15.9447323,17.5031583 15.9447323,17.4893514 15.9585492,17.4617376 C15.9723661,17.4479307 15.9723661,17.4341238 15.9723661,17.40651 C15.9723661,17.392703 15.9861831,17.3650892 15.9861831,17.3512823 C15.9861831,17.3374754 16,17.3236685 16,17.2960547 L16,17.240827 L16,17.2132132 L16,4.56608332 C16,4.24852439 15.7512953,4 15.433506,4 L0.566493955,4 C0.248704663,4 0,4.24852439 0,4.56608332 L0,17.2132132 L0,17.240827 C0.0138169257,17.2546339 0.0138169257,17.2684409 0.0138169257,17.2960547 L0.0138169257,17.2960547 Z M1.78238342,16.6471299 L5.96891192,11.6490283 L7.70984456,12.8640365 C7.80656304,12.933071 7.91709845,12.9606848 8.02763385,12.9606848 C8.13816926,12.9606848 8.24870466,12.933071 8.34542314,12.8640365 L10.0863558,11.6490283 L14.2728843,16.6471299 L1.78238342,16.6471299 L1.78238342,16.6471299 Z M14.9222798,15.6530323 L11.0120898,11.0001036 L14.9084629,8.28014221 L14.9084629,15.6530323 L14.9222798,15.6530323 Z M1.14680484,5.13216665 L14.9222798,5.13216665 L14.9222798,6.91325809 L8.04145078,11.704256 L1.14680484,6.91325809 L1.14680484,5.13216665 L1.14680484,5.13216665 Z M1.14680484,8.28014221 L5.04317789,11.0001036 L1.14680484,15.6530323 L1.14680484,8.28014221 L1.14680484,8.28014221 Z" id="envelope"></path>
                </g>
            </g>
        </g>
    </g>
</svg>