<?xml version="1.0" encoding="UTF-8" standalone="no"?>
<svg width="100px" height="100px" viewBox="0 0 100 100" version="1.1" xmlns="http://www.w3.org/2000/svg" xmlns:xlink="http://www.w3.org/1999/xlink">
    <!-- Generator: Sketch 3.8.3 (29802) - http://www.bohemiancoding.com/sketch -->
    <title>link</title>
    <desc>Created with Sketch.</desc>
    <defs></defs>
    <g id="Page-1" stroke="none" stroke-width="1" fill="none" fill-rule="evenodd">
        <g id="Desktop-HD" transform="translate(-415.000000, -1583.000000)" fill="#FFFFFF">
            <g id="my-projects" transform="translate(0.000000, 1331.000000)">
                <g id="proj-plates" transform="translate(224.000000, 182.000000)">
                    <g id="Group">
                        <path d="M216.365434,109.810834 L195.127257,131.134996 C189.624248,136.638005 189.624248,145.494411 195.127257,150.99742 L210.00258,165.872743 C212.6681,168.538263 216.193465,170 219.976784,170 C223.760103,170 227.285469,168.538263 229.950989,165.872743 L251.103181,144.548581 C253.768702,141.883061 255.230439,138.357696 255.230439,134.574377 C255.230439,134.402408 255.230439,134.316423 255.144454,134.144454 C255.316423,134.144454 255.402408,134.230439 255.574377,134.230439 C259.357696,134.230439 262.883061,132.768702 265.548581,130.103181 L286.872743,108.77902 C292.375752,103.27601 292.375752,94.4196045 286.872743,88.916595 L271.99742,74.0412726 C269.3319,71.4617369 265.806535,70 262.023216,70 C258.239897,70 254.800516,71.4617369 252.134996,74.1272571 L230.810834,95.3654342 C228.145314,98.0309544 226.683577,101.55632 226.683577,105.339639 C226.683577,105.511608 226.683577,105.597592 226.769561,105.769561 C226.597592,105.769561 226.511608,105.683577 226.339639,105.683577 C222.55632,105.683577 219.030954,107.145314 216.365434,109.810834 L216.365434,109.810834 Z M236.227859,100.782459 L257.552021,79.4582975 C258.755804,78.2545142 260.38951,77.566638 262.1092,77.566638 C263.828891,77.566638 265.462597,78.2545142 266.66638,79.4582975 L281.541702,94.3336199 C284.035254,96.8271711 284.035254,100.868444 281.541702,103.361995 L260.131556,124.686156 C257.72399,127.093723 253.510748,127.093723 251.103181,124.686156 L246.374033,119.957008 L250.673259,115.657782 C252.134996,114.196045 252.134996,111.702494 250.673259,110.240757 C249.211522,108.77902 246.717971,108.77902 245.256234,110.240757 L240.957008,114.539983 L236.227859,109.810834 C235.024076,108.607051 234.336199,106.973345 234.336199,105.253654 C234.336199,103.533964 235.024076,101.986242 236.227859,100.782459 L236.227859,100.782459 Z M230.810834,115.227859 L235.539983,119.957008 L231.240757,124.256234 C229.77902,125.717971 229.77902,128.211522 231.240757,129.673259 C232.014617,130.44712 232.960447,130.791058 233.906277,130.791058 C234.852107,130.791058 235.883921,130.44712 236.571797,129.673259 L240.871023,125.374033 L245.600172,130.103181 C246.803955,131.306965 247.491831,132.940671 247.491831,134.660361 C247.491831,136.380052 246.803955,138.013758 245.600172,139.217541 L224.27601,160.541702 C221.868444,162.949269 217.655202,162.949269 215.247635,160.541702 L200.458298,145.580396 C197.964746,143.086844 197.964746,139.045572 200.458298,136.552021 L221.782459,115.227859 C222.986242,114.024076 224.619948,113.336199 226.339639,113.336199 C227.973345,113.336199 229.607051,114.024076 230.810834,115.227859 L230.810834,115.227859 Z" id="link"></path>
                    </g>
                </g>
            </g>
        </g>
    </g>
</svg>