<?xml version="1.0" encoding="UTF-8" standalone="no"?>
<svg width="43px" height="40px" viewBox="0 0 43 40" version="1.1" xmlns="http://www.w3.org/2000/svg" xmlns:xlink="http://www.w3.org/1999/xlink">
    <!-- Generator: Sketch 3.8.3 (29802) - http://www.bohemiancoding.com/sketch -->
    <title>monitor</title>
    <desc>Created with Sketch.</desc>
    <defs></defs>
    <g id="Page-1" stroke="none" stroke-width="1" fill="none" fill-rule="evenodd">
        <g id="Desktop-HD" transform="translate(-495.000000, -1866.000000)" fill="#64DD17">
            <g id="my-projects" transform="translate(0.000000, 1331.000000)">
                <g id="proj-plates" transform="translate(224.000000, 182.000000)">
                    <g id="Group">
                        <g id="works" transform="translate(134.000000, 353.000000)">
                            <path d="M178.447058,0 L138.515905,0 C137.665519,0 137,0.666666667 137,1.51851852 L137,20.6666667 L137,28.4814815 C137,29.3333333 137.665519,30 138.515905,30 L156.965577,30 L156.965577,36.962963 L148.498693,36.962963 C147.648308,36.962963 146.982788,37.6296296 146.982788,38.4814815 C146.982788,39.3333333 147.648308,40 148.498693,40 L168.46427,40 C169.314655,40 169.980175,39.3333333 169.980175,38.4814815 C169.980175,37.6296296 169.314655,36.962963 168.46427,36.962963 L159.997386,36.962963 L159.997386,30 L178.447058,30 C179.297444,30 179.962963,29.3333333 179.962963,28.4814815 L179.962963,20.6666667 L179.962963,1.51851852 C179.962963,0.666666667 179.297444,3.2895497e-15 178.447058,3.2895497e-15 L178.447058,0 Z M176.931153,26.962963 L140.03181,26.962963 L140.03181,22.1481481 L176.931153,22.1481481 L176.931153,26.962963 L176.931153,26.962963 Z M176.931153,19.1481481 L140.03181,19.1481481 L140.03181,3.03703704 L176.931153,3.03703704 L176.931153,19.1481481 L176.931153,19.1481481 Z" id="monitor"></path>
                        </g>
                    </g>
                </g>
            </g>
        </g>
    </g>
</svg>